<?xml version="1.0" encoding="UTF-8"?>
<!-- Generator: visioncortex VTracer 0.6.4 -->
<svg version="1.1" xmlns="http://www.w3.org/2000/svg" width="500" height="500">
<path d="M0 0 C9.31 6.11 13.65 17.84 18.23 27.58 C20.08 31.51 21.96 35.42 23.84 39.33 C24.21 40.1 24.58 40.87 24.97 41.66 C28.33 48.62 31.97 55.41 35.73 62.17 C39.74 69.38 43.58 76.67 47.38 84 C47.93 85.07 48.48 86.14 49.06 87.24 C52.07 93.07 55.03 98.93 57.96 104.8 C62.4 113.72 66.94 122.58 71.5 131.44 C71.92 132.25 72.33 133.06 72.76 133.89 C84.59 157.05 84.59 157.05 97.17 179.79 C101.17 186.76 103.64 192.6 103.56 200.69 C103.58 201.42 103.6 202.15 103.62 202.9 C103.62 208.09 102.56 211.03 99.12 215.12 C95.8 218 92.47 220.15 88.55 222.15 C86.96 222.97 86.96 222.97 85.34 223.8 C84.24 224.36 83.13 224.92 82 225.5 C79.83 226.61 77.66 227.72 75.49 228.84 C74.53 229.32 73.58 229.81 72.59 230.31 C69.51 231.92 66.46 233.57 63.41 235.24 C62.42 235.78 61.43 236.32 60.41 236.88 C59.66 237.29 58.9 237.7 58.12 238.12 C58.12 239.49 58.12 239.49 58.12 240.89 C58.08 263.05 58.02 285.22 57.94 307.39 C57.9 318.11 57.87 328.83 57.85 339.55 C57.84 348.89 57.81 358.23 57.77 367.58 C57.75 372.53 57.73 377.47 57.73 382.42 C57.73 387.08 57.72 391.74 57.68 396.39 C57.68 398.1 57.67 399.81 57.68 401.52 C57.69 403.85 57.67 406.19 57.64 408.53 C57.64 409.83 57.64 411.14 57.63 412.48 C56.84 418.19 54.2 422.74 49.69 426.44 C49.13 426.91 48.58 427.38 48 427.86 C43.41 430.95 39.41 431.38 33.94 431.38 C33.23 431.39 32.51 431.39 31.77 431.39 C29.37 431.4 26.96 431.4 24.56 431.39 C22.82 431.4 21.08 431.4 19.34 431.41 C14.55 431.42 9.77 431.42 4.98 431.42 C-0.17 431.42 -5.33 431.43 -10.49 431.44 C-20.6 431.45 -30.71 431.46 -40.81 431.46 C-49.03 431.46 -57.24 431.46 -65.46 431.47 C-88.74 431.49 -112.02 431.5 -135.31 431.5 C-136.56 431.5 -137.82 431.5 -139.11 431.5 C-141 431.5 -141 431.5 -142.92 431.5 C-163.3 431.49 -183.67 431.51 -204.05 431.54 C-224.96 431.57 -245.88 431.58 -266.79 431.58 C-278.54 431.58 -290.28 431.59 -302.03 431.61 C-312.03 431.63 -322.03 431.63 -332.03 431.62 C-337.13 431.61 -342.23 431.61 -347.34 431.63 C-352.01 431.64 -356.68 431.64 -361.35 431.62 C-363.04 431.62 -364.73 431.62 -366.42 431.64 C-383.65 431.74 -383.65 431.74 -390.97 425.27 C-391.43 424.69 -391.9 424.1 -392.38 423.5 C-393.1 422.61 -393.1 422.61 -393.84 421.71 C-394.88 420.12 -394.88 420.12 -394.88 418.12 C-395.54 417.8 -396.19 417.46 -396.88 417.12 C-397.04 388.86 -397.16 360.59 -397.24 332.32 C-397.27 319.19 -397.32 306.07 -397.4 292.94 C-397.47 281.5 -397.52 270.06 -397.53 258.62 C-397.54 252.56 -397.56 246.51 -397.62 240.45 C-397.66 234.75 -397.68 229.04 -397.67 223.34 C-397.67 221.25 -397.68 219.16 -397.71 217.07 C-397.93 199.3 -397.93 199.3 -393.52 193.45 C-390.59 190.47 -387.46 188.2 -383.73 186.28 C-382.02 185.38 -382.02 185.38 -380.27 184.46 C-379.06 183.85 -377.84 183.24 -376.62 182.62 C-375.36 181.97 -374.1 181.31 -372.84 180.66 C-365.22 176.71 -357.51 172.98 -349.73 169.39 C-343 166.26 -336.55 162.73 -330.06 159.14 C-321.45 154.39 -312.74 149.87 -304 145.38 C-302.97 144.85 -302.97 144.85 -301.93 144.31 C-293.94 140.2 -285.92 136.14 -277.88 132.13 C-270.47 128.43 -263.11 124.66 -255.75 120.88 C-255.04 120.51 -254.33 120.14 -253.59 119.76 C-242.07 113.83 -230.66 107.7 -219.3 101.45 C-208.78 95.69 -198.17 90.22 -187.31 85.12 C-173.65 78.7 -160.39 71.53 -147.08 64.43 C-140.49 60.91 -133.88 57.44 -127.25 54 C-126.32 53.52 -125.4 53.03 -124.44 52.54 C-119.04 49.73 -113.62 46.99 -108.17 44.27 C-100 40.2 -91.87 36.05 -83.75 31.88 C-83.04 31.51 -82.32 31.14 -81.58 30.76 C-72.82 26.25 -64.12 21.66 -55.5 16.88 C-47.34 12.4 -39.12 8.06 -30.81 3.88 C-29.17 3.01 -29.17 3.01 -27.5 2.14 C-18.7 -2.2 -9.26 -4.4 0 0 Z M-223.44 130.38 C-224.9 131.11 -226.37 131.85 -227.84 132.59 C-228.65 133 -229.45 133.41 -230.28 133.82 C-233.02 135.2 -235.76 136.55 -238.5 137.91 C-250.38 143.78 -262.09 149.88 -273.69 156.28 C-281.03 160.33 -288.45 164.23 -295.88 168.12 C-292.75 169.94 -290.4 170.4 -286.79 170.48 C-285.78 170.5 -284.77 170.53 -283.73 170.56 C-282.09 170.58 -282.09 170.58 -280.42 170.6 C-279.28 170.62 -278.15 170.63 -276.98 170.65 C-274.57 170.68 -272.16 170.7 -269.75 170.72 C-267.31 170.74 -264.87 170.78 -262.43 170.84 C-247.19 171.21 -236.67 170.73 -223.88 162.12 C-221.5 161.37 -221.5 161.37 -219.88 161.12 C-219.57 162.07 -219.26 163.02 -218.94 164 C-218 166.99 -218 166.99 -216.88 169.12 C-209.62 169.12 -202.36 169.12 -194.88 169.12 C-196.42 164.5 -197.99 160.72 -200.21 156.44 C-200.69 155.51 -200.69 155.51 -201.18 154.57 C-201.86 153.27 -202.54 151.97 -203.21 150.67 C-204.24 148.7 -205.27 146.73 -206.29 144.76 C-209.38 138.81 -212.53 132.93 -215.88 127.12 C-218.37 127.12 -221.21 129.24 -223.44 130.38 Z M-373.88 208.12 C-373.88 274.45 -373.88 340.78 -373.88 409.12 C-315.13 409.12 -256.39 409.12 -195.88 409.12 C-195.88 342.8 -195.88 276.47 -195.88 208.12 C-254.62 208.12 -313.36 208.12 -373.88 208.12 Z " fill="#86D9FE" transform="translate(396.875,34.875)"/>
<path d="M0 0 C9.31 6.11 13.65 17.84 18.23 27.58 C20.08 31.51 21.96 35.42 23.84 39.33 C24.21 40.1 24.58 40.87 24.97 41.66 C28.33 48.62 31.97 55.41 35.73 62.17 C39.74 69.38 43.58 76.67 47.38 84 C47.93 85.07 48.48 86.14 49.06 87.24 C52.07 93.07 55.03 98.93 57.96 104.8 C62.4 113.72 66.94 122.58 71.5 131.44 C71.92 132.25 72.33 133.06 72.76 133.89 C84.59 157.05 84.59 157.05 97.17 179.79 C101.17 186.76 103.64 192.6 103.56 200.69 C103.58 201.42 103.6 202.15 103.62 202.9 C103.62 208.09 102.56 211.03 99.12 215.12 C94.63 219.48 88.89 222.04 83.38 224.88 C82.4 225.38 81.43 225.89 80.43 226.41 C73.27 230.12 73.27 230.12 72.12 230.12 C72.1 228.83 72.1 228.83 72.08 227.51 C72.02 224.28 71.95 221.04 71.86 217.8 C71.83 216.41 71.8 215.01 71.78 213.62 C71.59 202.44 70.25 193.61 64.12 184.12 C63.46 183.79 62.81 183.47 62.12 183.12 C62.12 182.47 62.12 181.81 62.12 181.12 C61.13 180.79 60.14 180.47 59.12 180.12 C59.12 179.47 59.12 178.81 59.12 178.12 C58.42 177.86 57.72 177.59 57 177.31 C54.13 176.13 54.13 176.13 51.38 174.62 C42.85 170.69 34.12 170.79 24.9 170.71 C23.55 170.69 22.19 170.67 20.84 170.65 C17.3 170.6 13.77 170.56 10.23 170.52 C6.61 170.48 2.99 170.43 -0.63 170.38 C-7.71 170.29 -14.79 170.2 -21.88 170.12 C-23.05 168.02 -24.21 165.92 -25.38 163.81 C-25.71 163.22 -26.04 162.62 -26.39 162.01 C-27.94 159.17 -28.88 157.42 -28.88 154.12 C-20.32 152.17 -11.77 150.25 -3.12 148.69 C4.48 147.31 11.99 145.58 19.5 143.75 C24.52 142.56 28.97 141.86 34.12 142.12 C30.55 133.02 25.88 128.56 17.12 124.12 C11.8 121.83 6.94 121.85 1.25 121.94 C0.32 121.94 -0.62 121.95 -1.58 121.96 C-7.05 122.02 -12.48 122.24 -17.94 122.62 C-24.19 123.06 -30.42 123.33 -36.69 123.44 C-37.55 123.47 -38.42 123.5 -39.31 123.53 C-45.34 123.58 -45.34 123.58 -47.95 121.36 C-48.88 119.12 -48.88 119.12 -48.88 115.12 C-49.54 115.12 -50.19 115.12 -50.88 115.12 C-51.28 114.28 -51.68 113.43 -52.1 112.56 C-53.61 109.39 -55.12 106.23 -56.64 103.06 C-57.29 101.7 -57.94 100.33 -58.59 98.97 C-59.53 96.99 -60.48 95.02 -61.42 93.05 C-61.99 91.87 -62.55 90.69 -63.14 89.47 C-67.29 81.45 -67.29 81.45 -74.88 77.12 C-79.26 76.41 -83.11 76.09 -87.04 78.4 C-90.13 81.01 -92.55 83.11 -93.22 87.23 C-93.67 94.92 -91.32 100.19 -87.7 106.77 C-85.86 110.15 -84.39 113.58 -82.88 117.12 C-82.22 118.44 -81.55 119.76 -80.87 121.06 C-80.52 121.73 -80.17 122.4 -79.82 123.09 C-79.1 124.45 -78.38 125.81 -77.66 127.16 C-75.44 131.47 -74.06 135.19 -73.88 140.12 C-76.13 143.19 -76.13 143.19 -77.8 144.92 C-80.51 147.8 -82.89 150.88 -85.31 154 C-87.99 157.43 -87.99 157.43 -89.37 159.09 C-90.95 161.08 -90.95 161.08 -91.94 163.42 C-93.61 166.5 -94.99 168.11 -97.88 170.12 C-104.72 171.86 -112.13 171.17 -119.12 171 C-121.22 170.99 -123.32 170.97 -125.41 170.97 C-130.92 170.93 -136.42 170.84 -141.93 170.74 C-147.55 170.65 -153.18 170.61 -158.8 170.56 C-169.83 170.47 -180.85 170.31 -191.88 170.12 C-191.51 170.87 -191.15 171.62 -190.78 172.39 C-190.32 173.38 -189.85 174.36 -189.38 175.38 C-188.91 176.35 -188.45 177.32 -187.97 178.33 C-186.88 181.12 -186.88 181.12 -186.88 185.12 C-194.79 185.46 -202.72 185.78 -210.88 186.12 C-211.21 184.47 -211.53 182.82 -211.88 181.12 C-212.87 179.05 -213.99 177.09 -215.13 175.09 C-215.88 173.12 -215.88 173.12 -214.88 169.12 C-208.28 169.12 -201.68 169.12 -194.88 169.12 C-197.52 163.93 -200.17 158.73 -202.83 153.54 C-203.73 151.77 -204.63 150 -205.53 148.23 C-206.83 145.69 -208.13 143.15 -209.43 140.61 C-209.83 139.82 -210.23 139.03 -210.64 138.22 C-212.48 134.63 -214.28 131.25 -216.88 128.12 C-217.75 128.56 -218.63 129 -219.53 129.45 C-220.13 129.75 -220.73 130.05 -221.34 130.36 C-222.73 131.05 -224.11 131.74 -225.5 132.44 C-229.91 134.65 -234.33 136.85 -238.75 139.05 C-252.09 145.67 -252.09 145.67 -265.25 152.62 C-272.92 156.76 -280.65 159.85 -288.96 162.41 C-291.16 163.15 -291.16 163.15 -293.88 165.12 C-295.86 165.83 -297.86 166.5 -299.88 167.12 C-299.88 167.78 -299.88 168.44 -299.88 169.12 C-302.64 170.05 -304.27 170.25 -307.11 170.25 C-307.96 170.25 -308.82 170.26 -309.69 170.26 C-311.07 170.26 -311.07 170.26 -312.48 170.27 C-314.43 170.28 -316.39 170.3 -318.34 170.32 C-321.41 170.35 -324.49 170.37 -327.56 170.38 C-330.53 170.38 -333.5 170.41 -336.48 170.45 C-337.84 170.44 -337.84 170.44 -339.22 170.43 C-345.09 170.54 -348.9 171.76 -353.83 174.98 C-357.11 176.82 -360.15 176.92 -363.88 177.12 C-360.42 174.24 -356.58 172.51 -352.5 170.69 C-345.8 167.61 -339.32 164.26 -332.88 160.69 C-323.34 155.41 -313.69 150.36 -304 145.38 C-303.32 145.02 -302.63 144.67 -301.93 144.31 C-293.94 140.2 -285.92 136.14 -277.88 132.13 C-270.47 128.43 -263.11 124.66 -255.75 120.88 C-255.04 120.51 -254.33 120.14 -253.59 119.76 C-242.07 113.83 -230.66 107.7 -219.3 101.45 C-208.78 95.69 -198.17 90.22 -187.31 85.12 C-173.65 78.7 -160.39 71.53 -147.08 64.43 C-140.49 60.91 -133.88 57.44 -127.25 54 C-126.32 53.52 -125.4 53.03 -124.44 52.54 C-119.04 49.73 -113.62 46.99 -108.17 44.27 C-100 40.2 -91.87 36.05 -83.75 31.88 C-83.04 31.51 -82.32 31.14 -81.58 30.76 C-72.82 26.25 -64.12 21.66 -55.5 16.88 C-47.34 12.4 -39.12 8.06 -30.81 3.88 C-29.17 3.01 -29.17 3.01 -27.5 2.14 C-18.7 -2.2 -9.26 -4.4 0 0 Z " fill="#85DAFE" transform="translate(396.875,34.875)"/>
<path d="M0 0 C3.78 1.44 7.67 3.64 10 7 C11.28 12.52 11.13 18.02 11.1 23.65 C11.1 24.66 11.09 25.67 11.09 26.72 C11.09 29.94 11.08 33.16 11.06 36.38 C11.06 38.56 11.05 40.75 11.05 42.94 C11.04 48.29 11.02 53.65 11 59 C11.76 59.13 12.52 59.27 13.3 59.41 C16.78 60.17 19.69 61.73 22.81 63.38 C27.84 65.97 32.9 68.43 38.07 70.73 C39.12 71.2 40.17 71.67 41.26 72.15 C43.33 73.07 45.41 73.98 47.49 74.88 C58.3 79.7 67.81 86.03 72.31 97.38 C74.07 102.09 74.14 106.02 74 111 C71.79 110.46 69.58 109.92 67.38 109.38 C66.67 109.2 65.96 109.03 65.23 108.85 C61.02 107.8 56.84 106.69 52.67 105.5 C43.07 102.79 33.64 100.31 23.72 99.03 C19.43 98.43 16.62 97.32 13 95 C11.34 94.63 9.67 94.29 8 94 C7.85 98.84 7.77 103.67 7.77 108.51 C7.76 110.16 7.72 111.8 7.67 113.44 C7.13 123.3 7.13 123.3 11.4 131.7 C15.43 134.4 19.57 136.37 24 138.31 C26.79 139.67 28.84 140.76 31 143 C32.22 147.68 31.95 152.08 31.62 156.88 C31.56 158.77 31.56 158.77 31.49 160.7 C31.37 163.8 31.21 166.9 31 170 C22.01 167.29 13.81 163.2 5.42 159.03 C4.31 158.5 3.2 157.97 2.05 157.42 C1.06 156.93 0.06 156.44 -0.96 155.94 C-7.15 154.02 -12.23 156.29 -17.89 158.91 C-18.51 159.19 -19.14 159.48 -19.78 159.77 C-21.75 160.67 -23.72 161.58 -25.69 162.5 C-27.67 163.41 -29.65 164.32 -31.63 165.23 C-33.42 166.05 -35.21 166.88 -36.99 167.71 C-39.37 168.73 -41.48 169.5 -44 170 C-44.32 165.65 -44.52 161.3 -44.69 156.94 C-44.78 155.71 -44.87 154.48 -44.97 153.21 C-45.08 149.52 -45.02 146.56 -44 143 C-40.74 139.75 -37.12 137.96 -33 136 C-30.3 134.13 -27.65 132.22 -25 130.29 C-23 129 -23 129 -21 129 C-21 117.45 -21 105.9 -21 94 C-23.43 94.72 -25.87 95.44 -28.38 96.19 C-34.76 98.07 -41.15 99.9 -47.56 101.69 C-48.29 101.89 -49.01 102.09 -49.76 102.3 C-53.82 103.42 -57.9 104.49 -61.99 105.5 C-64.06 106.01 -66.12 106.54 -68.18 107.07 C-69.55 107.42 -70.93 107.77 -72.31 108.12 C-73.01 108.31 -73.72 108.49 -74.44 108.68 C-77.38 109.42 -79.96 110 -83 110 C-83.78 102.58 -82.79 97.38 -79.29 90.8 C-71.52 81.29 -60.92 76.73 -50 71.81 C-47.75 70.78 -45.5 69.75 -43.25 68.71 C-41.81 68.05 -40.36 67.39 -38.92 66.73 C-34.16 64.56 -29.5 62.27 -24.88 59.82 C-23 59 -23 59 -20 59 C-20.01 58.4 -20.02 57.8 -20.03 57.18 C-20.12 50.92 -20.18 44.66 -20.22 38.39 C-20.24 36.06 -20.27 33.72 -20.3 31.39 C-20.35 28.03 -20.37 24.67 -20.39 21.3 C-20.41 20.26 -20.43 19.22 -20.45 18.15 C-20.46 12.08 -20.05 8.62 -16 4 C-11.06 -0.47 -6.39 -1.02 0 0 Z " fill="#405A6C" transform="translate(344,259)"/>
<path d="M0 0 C10.53 3.86 14.39 16.51 18.88 26 C19.37 27.04 19.87 28.07 20.38 29.14 C24 36.74 24 36.74 24 39 C24.66 39 25.32 39 26 39 C26.99 41.31 27.98 43.62 29 46 C42.98 46.13 42.98 46.13 56.94 45.5 C90.13 43.28 90.13 43.28 102.56 53.5 C105.26 56.09 107.5 58.53 109 62 C109 63.32 109 64.64 109 66 C107.75 66.24 106.51 66.48 105.22 66.73 C96.9 68.37 88.61 70.04 80.38 72.06 C73.54 73.74 66.67 74.98 59.71 76.05 C55.73 76.61 55.73 76.61 52 78 C50 78.04 48 78.04 46 78 C46.83 79.66 47.66 81.32 48.49 82.98 C49.21 84.42 49.93 85.86 50.65 87.3 C52.45 90.91 54.26 94.51 56.09 98.11 C56.41 98.74 56.73 99.38 57.07 100.03 C57.96 101.79 58.85 103.55 59.75 105.3 C61 108 61 108 61 110 C56.09 110.15 51.18 110.26 46.27 110.33 C44.6 110.36 42.93 110.4 41.26 110.45 C38.85 110.53 36.45 110.56 34.05 110.59 C33.3 110.62 32.56 110.65 31.79 110.68 C29.67 110.68 29.67 110.68 26 110 C23.05 106.51 21.36 102.87 19.75 98.62 C19.41 97.75 19.08 96.88 18.73 95.98 C18.49 95.32 18.25 94.67 18 94 C16.61 95.18 16.61 95.18 15.19 96.38 C14.54 96.92 13.88 97.46 13.21 98.01 C10.91 100 10.91 100 8.79 102.52 C4.11 107.56 0.77 110.5 -6.11 110.95 C-9.82 110.99 -13.49 110.84 -17.19 110.62 C-18.73 110.57 -20.27 110.53 -21.81 110.49 C-25.54 110.38 -29.27 110.21 -33 110 C-30.73 100.17 -22.13 91.83 -16 84 C-15.28 83.08 -15.28 83.08 -14.55 82.15 C-13.1 80.28 -11.64 78.42 -10.19 76.56 C-9.52 75.71 -9.52 75.71 -8.84 74.84 C-8.41 74.3 -7.98 73.75 -7.54 73.19 C-7.13 72.66 -6.71 72.12 -6.29 71.57 C-5 70 -5 70 -3.53 68.5 C-0.9 65.76 -0 64.44 0.04 60.59 C-1.1 56.66 -2.65 53.16 -4.56 49.56 C-5.29 48.16 -6.01 46.76 -6.73 45.36 C-7.1 44.64 -7.48 43.93 -7.86 43.19 C-9.74 39.58 -11.55 35.95 -13.38 32.31 C-13.71 31.65 -14.04 31 -14.39 30.32 C-18.01 23.1 -20.54 17.18 -19 9 C-14.09 0.93 -9.13 -0.92 0 0 Z " fill="#3F5B6D" transform="translate(322,111)"/>
<path d="M0 0 C1.02 0 2.03 0 3.08 0.01 C4.24 0 5.41 0 6.61 -0 C7.89 0 9.17 0.01 10.49 0.02 C11.85 0.02 13.21 0.02 14.57 0.02 C18.27 0.02 21.97 0.03 25.67 0.04 C29.53 0.06 33.39 0.06 37.25 0.06 C44.57 0.07 51.89 0.08 59.21 0.1 C67.53 0.12 75.86 0.14 84.19 0.15 C101.33 0.17 118.46 0.2 135.6 0.25 C135.6 9.82 135.6 19.39 135.6 29.25 C117.64 29.29 99.68 29.33 81.72 29.35 C73.39 29.36 65.05 29.37 56.71 29.4 C49.44 29.42 42.18 29.43 34.91 29.43 C31.06 29.44 27.22 29.44 23.37 29.46 C19.75 29.47 16.13 29.48 12.51 29.47 C10.54 29.47 8.57 29.48 6.61 29.49 C5.44 29.49 4.28 29.49 3.08 29.49 C2.06 29.49 1.05 29.49 0 29.49 C-2.4 29.25 -2.4 29.25 -4.4 27.25 C-5.51 21.38 -5.41 15.74 -5.09 9.81 C-5.05 9.1 -5.02 8.39 -4.98 7.66 C-4.51 0.46 -4.51 0.46 0 0 Z " fill="#FC7158" transform="translate(46.40129280090332,387.75390434265137)"/>
<path d="M0 0 C46.2 0 92.4 0 140 0 C140 8.91 140 17.82 140 27 C121.89 27.02 103.79 27.04 85.68 27.05 C77.28 27.06 68.87 27.06 60.46 27.08 C53.14 27.09 45.81 27.09 38.49 27.09 C34.61 27.1 30.73 27.1 26.85 27.11 C23.2 27.11 19.55 27.11 15.9 27.11 C13.92 27.11 11.93 27.12 9.95 27.12 C8.77 27.12 7.6 27.12 6.4 27.12 C4.86 27.12 4.86 27.12 3.29 27.12 C1 27 1 27 0 26 C0 17.42 0 8.84 0 0 Z " fill="#FD7058" transform="translate(42,330)"/>
<path d="M0 0 C1.54 0 1.54 0 3.1 0 C4.86 0 4.86 0 6.65 -0 C8.6 0 8.6 0 10.58 0.01 C11.95 0.01 13.32 0.01 14.69 0.01 C18.42 0.01 22.15 0.01 25.88 0.02 C29.77 0.03 33.66 0.03 37.55 0.03 C44.93 0.03 52.31 0.04 59.69 0.05 C68.08 0.06 76.48 0.07 84.88 0.07 C102.15 0.08 119.43 0.1 136.71 0.12 C136.71 9.03 136.71 17.94 136.71 27.12 C90.51 27.12 44.31 27.12 -3.29 27.12 C-3.29 0.18 -3.29 0.18 0 0 Z " fill="#FD7058" transform="translate(45.29386234283447,269.8769521713257)"/>
<path d="M0 0 C7.62 -0.07 15.23 -0.12 22.85 -0.16 C26.38 -0.17 29.92 -0.19 33.46 -0.23 C37.54 -0.27 41.62 -0.28 45.7 -0.29 C46.95 -0.31 48.2 -0.32 49.49 -0.34 C61.49 -0.34 72.52 1.32 81.71 9.53 C83 11 83 11 83 13 C83.99 13.33 84.98 13.66 86 14 C87.57 16.33 87.57 16.33 89.12 19.25 C89.64 20.2 90.16 21.16 90.7 22.14 C93.68 28.68 93.46 35.79 93.62 42.86 C93.67 44.25 93.73 45.63 93.81 47 C94.07 51.5 94.11 55.63 93 60 C88.67 64.63 82.88 66.1 77 68 C76.99 66.98 76.97 65.96 76.96 64.91 C76.9 61.1 76.82 57.3 76.74 53.49 C76.7 51.84 76.68 50.2 76.65 48.56 C76.62 46.18 76.57 43.81 76.51 41.44 C76.51 40.71 76.5 39.99 76.49 39.24 C76.34 33.93 75.05 29.91 73 25 C72.5 23.51 72.5 23.51 72 22 C69.98 21.27 69.98 21.27 68 21 C68 20.34 68 19.68 68 19 C61.53 16.68 55.33 16.65 48.5 16.59 C46.72 16.56 46.72 16.56 44.9 16.53 C41.12 16.47 37.34 16.42 33.56 16.38 C30.99 16.34 28.42 16.3 25.85 16.26 C19.57 16.16 13.28 16.08 7 16 C5.83 13.71 4.66 11.42 3.5 9.12 C3.17 8.47 2.83 7.82 2.49 7.15 C0 2.23 0 2.23 0 0 Z " fill="#74BFE0" transform="translate(376,205)"/>
<path d="M0 0 C0.66 0.33 1.32 0.66 2 1 C-1.12 2.65 -4.25 4.29 -7.38 5.94 C-8.26 6.41 -9.15 6.87 -10.07 7.36 C-10.92 7.81 -11.77 8.25 -12.65 8.71 C-13.43 9.13 -14.22 9.54 -15.03 9.97 C-16.35 10.66 -17.67 11.34 -19 12 C-16.08 12.97 -14.07 13.17 -11.03 13.24 C-10.02 13.27 -9.01 13.29 -7.96 13.32 C-3.29 13.4 1.38 13.47 6.05 13.51 C8.49 13.55 10.94 13.59 13.39 13.66 C32.35 14.25 32.35 14.25 49.29 6.73 C52 5 52 5 56 5 C59 10.75 59 10.75 59 13 C59.99 13.5 59.99 13.5 61 14 C61.36 15.33 61.69 16.66 62 18 C63.03 20.04 64.13 22.01 65.26 24 C66 26 66 26 65 30 C25.4 30 -14.2 30 -55 30 C-55 29.34 -55 28.68 -55 28 C-53.83 27.42 -53.83 27.42 -52.65 26.84 C-49.76 25.41 -46.88 23.99 -44 22.56 C-42.75 21.94 -41.51 21.32 -40.26 20.71 C-38.47 19.82 -36.67 18.93 -34.88 18.04 C-33.8 17.5 -32.73 16.97 -31.61 16.42 C-28.94 15.13 -28.94 15.13 -27 13 C-26.01 13 -25.02 13 -24 13 C-24 12.34 -24 11.68 -24 11 C-23.19 10.6 -23.19 10.6 -22.36 10.2 C-21.64 9.84 -20.92 9.49 -20.19 9.12 C-19.48 8.78 -18.77 8.43 -18.04 8.07 C-15.79 6.93 -15.79 6.93 -13 5 C-11.53 4.46 -10.05 3.96 -8.56 3.5 C-6.17 2.76 -4.05 2.03 -1.84 0.84 C-0.93 0.43 -0.93 0.43 0 0 Z " fill="#D6DBDF" transform="translate(121,191)"/>
<path d="M0 0 C31.02 0 62.04 0 94 0 C92.02 2.64 90.04 5.28 88 8 C86.68 10.64 85.36 13.28 84 16 C58.59 16 33.18 16 7 16 C7 15.01 7 14.02 7 13 C6.34 13 5.68 13 5 13 C4.16 11.4 3.33 9.79 2.5 8.19 C1.8 6.85 1.8 6.85 1.09 5.48 C0 3 0 3 0 0 Z " fill="#74BFE0" transform="translate(205,205)"/>
<path d="M0 0 C3 5.75 3 5.75 3 8 C3.66 8.33 4.32 8.66 5 9 C5.36 10.33 5.69 11.66 6 13 C7.03 15.04 8.13 17.01 9.26 19 C10 21 10 21 9 25 C-9.81 25 -28.62 25 -48 25 C-44.41 22.13 -41.95 20.3 -37.98 18.38 C-37.04 17.92 -36.1 17.46 -35.13 16.98 C-34.16 16.51 -33.19 16.05 -32.19 15.56 C-25.55 12.35 -19.19 9.02 -13 5 C-11.43 4.05 -9.85 3.1 -8.25 2.19 C-7.53 1.77 -6.82 1.35 -6.08 0.92 C-4 0 -4 0 0 0 Z " fill="#D66A5A" transform="translate(177,196)"/>
<path d="M0 0 C0.94 0.01 1.88 0.01 2.85 0.02 C5.83 0.05 8.8 0.11 11.78 0.18 C13.81 0.2 15.84 0.22 17.87 0.24 C22.82 0.3 27.77 0.39 32.71 0.49 C19.72 13.82 2.39 17.58 -15.43 17.84 C-35.8 17.98 -35.8 17.98 -40.29 16.49 C-40.29 15.5 -40.29 14.51 -40.29 13.49 C-34.18 9.8 -28.91 7.11 -21.83 6.09 C-19.12 5.45 -17.44 4.48 -15.12 2.96 C-10.01 0.03 -5.8 -0.17 0 0 Z " fill="#75BFE0" transform="translate(60.28515625,204.51171875)"/>
<path d="M0 0 C1.02 0 2.03 0 3.08 0.01 C4.24 0 5.41 0 6.61 -0 C7.89 0 9.17 0.01 10.49 0.02 C11.85 0.02 13.21 0.02 14.57 0.02 C18.27 0.02 21.97 0.03 25.67 0.04 C29.53 0.06 33.39 0.06 37.25 0.06 C44.57 0.07 51.89 0.08 59.21 0.1 C67.53 0.12 75.86 0.14 84.19 0.15 C101.33 0.17 118.46 0.2 135.6 0.25 C135.6 9.82 135.6 19.39 135.6 29.25 C117.64 29.29 99.68 29.33 81.72 29.35 C73.39 29.36 65.05 29.37 56.71 29.4 C49.44 29.42 42.18 29.43 34.91 29.43 C31.06 29.44 27.22 29.44 23.37 29.46 C19.75 29.47 16.13 29.48 12.51 29.47 C10.54 29.47 8.57 29.48 6.61 29.49 C5.44 29.49 4.28 29.49 3.08 29.49 C2.06 29.49 1.05 29.49 0 29.49 C-2.4 29.25 -2.4 29.25 -4.4 27.25 C-5.51 21.38 -5.41 15.74 -5.09 9.81 C-5.05 9.1 -5.02 8.39 -4.98 7.66 C-4.51 0.46 -4.51 0.46 0 0 Z M-2.4 2.25 C-2.4 10.5 -2.4 18.75 -2.4 27.25 C42.81 27.25 88.02 27.25 134.6 27.25 C134.6 18.67 134.6 10.09 134.6 1.25 C121.7 1.22 108.81 1.2 95.91 1.18 C94.96 1.18 94.01 1.18 93.03 1.18 C61.2 1.16 29.41 1.44 -2.4 2.25 Z " fill="#F7C3BC" transform="translate(46.40129280090332,387.75390434265137)"/>
<path d="M0 0 C46.2 0 92.4 0 140 0 C140 8.91 140 17.82 140 27 C121.89 27.02 103.79 27.04 85.68 27.05 C77.28 27.06 68.87 27.06 60.46 27.08 C53.14 27.09 45.81 27.09 38.49 27.09 C34.61 27.1 30.73 27.1 26.85 27.11 C23.2 27.11 19.55 27.11 15.9 27.11 C13.92 27.11 11.93 27.12 9.95 27.12 C8.77 27.12 7.6 27.12 6.4 27.12 C4.86 27.12 4.86 27.12 3.29 27.12 C1 27 1 27 0 26 C0 17.42 0 8.84 0 0 Z M2 1 C2 8.92 2 16.84 2 25 C46.88 25 91.76 25 138 25 C138 17.08 138 9.16 138 1 C93.12 1 48.24 1 2 1 Z " fill="#F19688" transform="translate(42,330)"/>
<path d="M0 0 C2 3.75 2 3.75 2 6 C2.66 6.33 3.32 6.66 4 7 C4.93 9.05 5.77 11.14 6.56 13.25 C7.21 14.96 7.21 14.96 7.88 16.7 C9 20 9 20 10 25 C2.08 25.33 -5.84 25.66 -14 26 C-14.33 24.35 -14.66 22.7 -15 21 C-16 18.93 -17.11 16.96 -18.26 14.96 C-19 13 -19 13 -18 9 C-11.4 9 -4.8 9 2 9 C1.01 7.02 0.02 5.04 -1 3 C-0.67 2.01 -0.34 1.02 0 0 Z " fill="#D3DCE1" transform="translate(200,195)"/>
<path d="M0 0 C1.54 0 1.54 0 3.1 0 C4.86 0 4.86 0 6.65 -0 C8.6 0 8.6 0 10.58 0.01 C11.95 0.01 13.32 0.01 14.69 0.01 C18.42 0.01 22.15 0.01 25.88 0.02 C29.77 0.03 33.66 0.03 37.55 0.03 C44.93 0.03 52.31 0.04 59.69 0.05 C68.08 0.06 76.48 0.07 84.88 0.07 C102.15 0.08 119.43 0.1 136.71 0.12 C136.71 9.03 136.71 17.94 136.71 27.12 C136.38 27.12 136.05 27.12 135.71 27.12 C135.71 18.87 135.71 10.62 135.71 2.12 C90.5 2.12 45.29 2.12 -1.29 2.12 C-1.29 10.37 -1.29 18.62 -1.29 27.12 C-1.95 27.12 -2.61 27.12 -3.29 27.12 C-3.32 22.81 -3.34 18.5 -3.36 14.19 C-3.36 12.95 -3.37 11.72 -3.38 10.45 C-3.38 9.28 -3.39 8.11 -3.39 6.91 C-3.4 5.82 -3.4 4.74 -3.41 3.62 C-3.26 0.39 -3.22 0.17 0 0 Z " fill="#EB9384" transform="translate(45.29386234283447,269.8769521713257)"/>
<path d="M0 0 C0.33 0 0.66 0 1 0 C1.09 23.09 1.16 46.17 1.21 69.26 C1.23 79.98 1.26 90.7 1.3 101.42 C1.34 110.77 1.37 120.11 1.38 129.45 C1.38 134.4 1.39 139.35 1.42 144.3 C1.45 148.95 1.46 153.61 1.45 158.27 C1.45 159.98 1.46 161.68 1.48 163.39 C1.5 165.73 1.49 168.06 1.48 170.4 C1.48 171.71 1.49 173.01 1.49 174.36 C0.72 180.08 -1.93 184.61 -6.44 188.31 C-6.99 188.78 -7.55 189.25 -8.12 189.74 C-12.89 192.94 -17.19 193.27 -22.81 193.12 C-23.51 193.12 -24.2 193.11 -24.91 193.1 C-26.61 193.07 -28.3 193.04 -30 193 C-30 192.67 -30 192.34 -30 192 C-29.14 191.96 -28.29 191.93 -27.4 191.89 C-18.6 191.38 -11.43 190.62 -5 184 C-3.64 180.38 -3.64 180.38 -3 177 C-2.34 177 -1.68 177 -1 177 C-0.67 118.59 -0.34 60.18 0 0 Z " fill="#90D2F3" transform="translate(453,273)"/>
<path d="M0 0 C0.66 0 1.32 0 2 0 C2 1.32 2 2.64 2 4 C-16.3 4.77 -34.56 5.16 -52.88 5.12 C-54.08 5.12 -55.28 5.12 -56.52 5.12 C-86.35 5.1 -116.18 4.58 -146 4 C-146 3.34 -146 2.68 -146 2 C-97.82 2 -49.64 2 0 2 C0 1.34 0 0.68 0 0 Z " fill="#97D5F0" transform="translate(210,218)"/>
<path d="M0 0 C2.87 1.44 3.22 3.34 4.5 6.25 C5.13 7.68 5.13 7.68 5.78 9.14 C6.89 11.74 7.95 14.37 9 17 C0.42 17 -8.16 17 -17 17 C-10.27 9.15 -10.27 9.15 -6.81 6.25 C-4.44 4.25 -2.17 2.23 0 0 Z " fill="#74BBDA" transform="translate(339,204)"/>
<path d="M0 0 C2.06 2.25 2.06 2.25 4 5 C3.67 6.32 3.34 7.64 3 9 C-15.81 9 -34.62 9 -54 9 C-48.38 4.5 -48.38 4.5 -45 4 C-45 4.66 -45 5.32 -45 6 C-30.15 6.33 -15.3 6.66 0 7 C0 4.69 0 2.38 0 0 Z " fill="#B58080" transform="translate(183,212)"/>
<path d="M0 0 C0.66 0.33 1.32 0.66 2 1 C1.67 1.66 1.34 2.32 1 3 C19.15 3 37.3 3 56 3 C56.5 3.99 56.5 3.99 57 5 C36.21 5 15.42 5 -6 5 C-6 4.34 -6 3.68 -6 3 C-4.04 1.93 -2.03 0.93 0 0 Z " fill="#C0DEEB" transform="translate(72,216)"/>
<path d="M0 0 C3 5.75 3 5.75 3 8 C3.66 8.33 4.32 8.66 5 9 C4.34 9.66 3.68 10.32 3 11 C2.67 10.67 2.34 10.34 2 10 C0.55 9.91 -0.91 9.89 -2.37 9.9 C-3.7 9.91 -3.7 9.91 -5.05 9.91 C-5.98 9.92 -6.91 9.93 -7.88 9.94 C-9.26 9.94 -9.26 9.94 -10.68 9.95 C-12.4 9.96 -14.12 9.97 -15.84 9.98 C-17.56 10 -19.28 10 -21 10 C-16.8 7.31 -12.56 4.69 -8.25 2.19 C-7.53 1.77 -6.82 1.35 -6.08 0.92 C-4 0 -4 0 0 0 Z " fill="#F17E6A" transform="translate(177,196)"/>
<path d="M0 0 C0.66 0 1.32 0 2 0 C2 1.32 2 2.64 2 4 C-25.72 4 -53.44 4 -82 4 C-82 3.67 -82 3.34 -82 3 C-74.56 2.87 -67.11 2.74 -59.67 2.61 C-56.21 2.55 -52.75 2.49 -49.29 2.43 C-32.86 2.13 -16.44 1.92 0 2 C0 1.34 0 0.68 0 0 Z " fill="#ABC4D8" transform="translate(210,218)"/>
<path d="M0 0 C0.96 0 1.91 0 2.9 0.01 C3.98 0.01 5.06 0.01 6.18 0.01 C7.94 0.01 7.94 0.01 9.74 0.02 C10.94 0.02 12.13 0.03 13.37 0.03 C17.21 0.03 21.05 0.05 24.89 0.06 C27.49 0.06 30.09 0.07 32.68 0.07 C39.07 0.08 45.45 0.1 51.83 0.12 C51.83 0.45 51.83 0.78 51.83 1.12 C34.34 1.12 16.85 1.12 -1.17 1.12 C-1.17 9.7 -1.17 18.28 -1.17 27.12 C-1.83 26.79 -2.49 26.46 -3.17 26.12 C-4.31 20.22 -4.15 14.58 -3.8 8.62 C-3.75 7.9 -3.71 7.18 -3.67 6.44 C-3.23 0.18 -3.23 0.18 0 0 Z " fill="#E29A8C" transform="translate(45.17030334472656,388.87974548339844)"/>
<path d="M0 0 C2.75 3.4 6 7.48 6 12 C-5.55 12 -17.1 12 -29 12 C-29 11.01 -29 10.02 -29 9 C-19.43 9 -9.86 9 0 9 C1.53 5.93 0.55 3.3 0 0 Z " fill="#3F6A85" transform="translate(377,209)"/>
<path d="M0 0 C0.33 0.99 0.66 1.98 1 3 C0.01 3.33 -0.98 3.66 -2 4 C-3.17 5.92 -3.17 5.92 -4 8 C-4.33 8.66 -4.66 9.32 -5 10 C-5.12 11.54 -5.18 13.09 -5.21 14.63 C-5.23 15.59 -5.25 16.55 -5.27 17.54 C-5.29 19.1 -5.29 19.1 -5.32 20.7 C-5.34 21.76 -5.36 22.82 -5.38 23.92 C-5.44 27.32 -5.5 30.72 -5.56 34.12 C-5.61 36.43 -5.65 38.73 -5.69 41.04 C-5.8 46.69 -5.9 52.34 -6 58 C-6.8 58.12 -7.61 58.25 -8.44 58.38 C-9.28 58.58 -10.13 58.79 -11 59 C-11.33 59.66 -11.66 60.32 -12 61 C-12.66 60.34 -13.32 59.68 -14 59 C-11.35 57.54 -10.11 57 -7 57 C-7.01 56.4 -7.02 55.8 -7.03 55.18 C-7.12 48.92 -7.18 42.66 -7.22 36.39 C-7.24 34.06 -7.27 31.72 -7.3 29.39 C-7.35 26.03 -7.37 22.67 -7.39 19.3 C-7.41 18.26 -7.43 17.22 -7.45 16.15 C-7.46 10.11 -7.09 6.57 -3 2 C-2.01 1.34 -1.02 0.68 0 0 Z " fill="#49758D" transform="translate(331,261)"/>
<path d="M0 0 C1.53 0.71 1.53 0.71 3.08 1.43 C5.58 2.59 8.07 3.76 10.56 4.94 C7 6.13 6.55 5.73 3.31 4.12 C-0.57 2.29 -4.28 1 -8.44 -0.06 C-8.44 -0.72 -8.44 -1.38 -8.44 -2.06 C-14.06 -4.03 -14.06 -4.03 -19.69 -2.88 C-22.01 -1.34 -24.27 0.19 -26.44 1.94 C-26.77 0.62 -27.1 -0.7 -27.44 -2.06 C-26.09 -2.77 -24.74 -3.45 -23.38 -4.12 C-22.62 -4.51 -21.87 -4.89 -21.09 -5.29 C-13.55 -7.49 -6.67 -3.16 0 0 Z " fill="#87CDEB" transform="translate(353.4375,419.0625)"/>
<path d="M0 0 C0.75 1.56 0.75 1.56 1 4 C-1.83 10.37 -6.02 14.93 -12.23 18.16 C-15.79 19.24 -19.14 19.22 -22.81 19.12 C-23.85 19.11 -23.85 19.11 -24.91 19.1 C-26.61 19.07 -28.3 19.04 -30 19 C-30 18.67 -30 18.34 -30 18 C-28.71 17.94 -28.71 17.94 -27.4 17.89 C-18.6 17.38 -11.43 16.62 -5 10 C-3.64 6.38 -3.64 6.38 -3 3 C-2.34 3 -1.68 3 -1 3 C-0.67 2.01 -0.34 1.02 0 0 Z " fill="#A6DFF5" transform="translate(453,447)"/>
<path d="M0 0 C0.66 0.33 1.32 0.66 2 1 C-1.03 2.66 -4.08 4.3 -7.12 5.94 C-7.98 6.41 -8.84 6.87 -9.72 7.36 C-14.15 9.72 -17.9 11.61 -23 12 C-23 12.66 -23 13.32 -23 14 C-22.01 14.33 -21.02 14.66 -20 15 C-24.45 15.5 -24.45 15.5 -29 16 C-28.34 15.01 -27.68 14.02 -27 13 C-26.01 13 -25.02 13 -24 13 C-24 12.34 -24 11.68 -24 11 C-23.19 10.6 -23.19 10.6 -22.36 10.2 C-21.64 9.84 -20.92 9.49 -20.19 9.12 C-19.48 8.78 -18.77 8.43 -18.04 8.07 C-15.79 6.93 -15.79 6.93 -13 5 C-11.53 4.46 -10.05 3.96 -8.56 3.5 C-6.17 2.76 -4.05 2.03 -1.84 0.84 C-1.23 0.57 -0.63 0.29 0 0 Z " fill="#B5E8F8" transform="translate(121,191)"/>
<path d="M0 0 C1.81 0.06 1.81 0.06 4 1 C6.1 4.97 7 7.48 7 12 C7.66 12 8.32 12 9 12 C9.87 13.58 10.72 15.16 11.56 16.75 C12.04 17.63 12.51 18.51 13 19.42 C14.11 22.3 13.87 23.16 13 26 C11.15 22.46 9.29 18.92 7.45 15.37 C6.82 14.17 6.19 12.96 5.55 11.76 C4.65 10.03 3.75 8.3 2.84 6.57 C2.03 5 2.03 5 1.19 3.41 C0 1 0 1 0 0 Z " fill="#A9E3F7" transform="translate(185,170)"/>
<path d="M0 0 C1.65 0 3.3 0 5 0 C3.68 0.33 2.36 0.66 1 1 C1 11.89 1 22.78 1 34 C2.32 34 3.64 34 5 34 C5.66 35.65 6.32 37.3 7 39 C4.08 37.93 2.22 37.22 0 35 C-0.18 32.35 -0.23 29.8 -0.2 27.15 C-0.19 26.37 -0.19 25.6 -0.19 24.8 C-0.18 22.33 -0.15 19.85 -0.12 17.38 C-0.11 15.7 -0.11 14.02 -0.1 12.34 C-0.08 8.23 -0.04 4.11 0 0 Z " fill="#72B4D1" transform="translate(352,353)"/>
<path d="M0 0 C0.66 0 1.32 0 2 0 C2 1.32 2 2.64 2 4 C-6.58 4 -15.16 4 -24 4 C-22 2 -22 2 -19.75 1.77 C-18.84 1.78 -17.93 1.79 -16.99 1.8 C-16.01 1.81 -15.02 1.82 -14 1.82 C-12.46 1.85 -12.46 1.85 -10.88 1.88 C-9.83 1.88 -8.79 1.89 -7.72 1.9 C-5.15 1.93 -2.57 1.96 0 2 C0 1.34 0 0.68 0 0 Z " fill="#A7D9EE" transform="translate(210,218)"/>
<path d="M0 0 C2.48 0.99 2.48 0.99 5 2 C5 10.91 5 19.82 5 29 C2.69 28.34 0.38 27.68 -2 27 C-1.04 26.54 -1.04 26.54 -0.06 26.06 C1.94 25.17 1.94 25.17 3 24 C3.1 21.43 3.14 18.89 3.12 16.31 C3.13 15.6 3.13 14.9 3.14 14.17 C3.13 10 2.81 6.1 2 2 C1.34 2 0.68 2 0 2 C0 1.34 0 0.68 0 0 Z " fill="#376881" transform="translate(370,400)"/>
<path d="M0 0 C0 0.66 0 1.32 0 2 C0.85 2.1 1.69 2.21 2.56 2.31 C6.41 3.08 9.44 4.36 13 6 C12.67 6.66 12.34 7.32 12 8 C3.7 5.4 3.7 5.4 -0.06 3.25 C-4.14 1.52 -6.69 2.18 -11 3 C-11 2.01 -11 1.02 -11 0 C-6.66 -2.3 -4.47 -1.87 0 0 Z " fill="#3D697F" transform="translate(343,412)"/>
<path d="M0 0 C0.99 0.5 0.99 0.5 2 1 C1.67 8.59 1.34 16.18 1 24 C3.97 23.34 6.94 22.68 10 22 C6.6 24.88 4.59 25.47 0 27 C0 18.09 0 9.18 0 0 Z " fill="#44708B" transform="translate(300,402)"/>
<path d="M0 0 C1 3 1 3 -0.06 5.88 C-2.34 9.54 -4.58 11.41 -8 14 C-8.66 13.67 -9.32 13.34 -10 13 C-8.71 11.21 -7.42 9.42 -6.12 7.62 C-5.05 6.13 -5.05 6.13 -3.95 4.6 C-2 2 -2 2 0 0 Z " fill="#446F86" transform="translate(311,189)"/>
<path d="M0 0 C2.35 3.14 4 5.78 5.69 9.25 C6.34 10.59 6.34 10.59 7.01 11.95 C7.34 12.63 7.66 13.3 8 14 C7.01 14 6.02 14 5 14 C4 13 4 13 3.94 10.44 C3.96 9.63 3.98 8.83 4 8 C2.02 8.99 2.02 8.99 0 10 C0 6.7 0 3.4 0 0 Z " fill="#A9E5F7" transform="translate(492,213)"/>
<path d="M0 0 C-1 3 -1 3 -2.89 4.06 C-4.06 4.53 -4.06 4.53 -5.25 5 C-8 6.13 -10.3 7.19 -12.81 8.81 C-15 10 -15 10 -17.14 9.57 C-17.75 9.38 -18.37 9.2 -19 9 C-16.21 7.49 -13.42 6 -10.62 4.5 C-9.83 4.07 -9.04 3.64 -8.22 3.2 C-7.46 2.79 -6.7 2.39 -5.91 1.97 C-4.86 1.4 -4.86 1.4 -3.79 0.83 C-2 0 -2 0 0 0 Z " fill="#9DDAF3" transform="translate(150,152)"/>
<path d="M0 0 C-6.03 4.04 -10.68 6.73 -18 7 C-14.99 4.58 -11.94 2.87 -8.44 1.25 C-7.01 0.58 -7.01 0.58 -5.56 -0.11 C-3 -1 -3 -1 0 0 Z " fill="#9ED3E8" transform="translate(51,205)"/>
<path d="M0 0 C0.33 0 0.66 0 1 0 C1.17 4.92 1.25 8.5 -1 13 C0.98 13 2.96 13 5 13 C2.35 14.46 1.11 15 -2 15 C-2.05 13.25 -2.09 11.5 -2.12 9.75 C-2.16 8.29 -2.16 8.29 -2.2 6.8 C-2 3.98 -1.45 2.39 0 0 Z " fill="#3C6880" transform="translate(263,354)"/>
<path d="M0 0 C-1 3 -1 3 -3.33 4.35 C-4.29 4.77 -5.26 5.19 -6.25 5.62 C-7.2 6.05 -8.16 6.48 -9.14 6.91 C-11.77 7.91 -14.23 8.54 -17 9 C-14.42 6.01 -11.46 4.54 -7.94 2.81 C-6.87 2.28 -5.81 1.75 -4.71 1.21 C-2 0 -2 0 0 0 Z " fill="#97D9F1" transform="translate(220,116)"/>
<path d="M0 0 C2.63 0.25 5.25 0.53 7.88 0.81 C8.99 0.92 8.99 0.92 10.14 1.03 C12.11 1.25 14.06 1.62 16 2 C16.99 3.49 16.99 3.49 18 5 C16.36 4.76 14.72 4.52 13.08 4.28 C11.68 4.09 10.27 3.94 8.86 3.82 C4.76 3.44 2.7 3.11 0 0 Z " fill="#5D93AF" transform="translate(359,354)"/>
<path d="M0 0 C-3.66 3.05 -9.08 7 -14 7 C-13.73 5.11 -13.73 5.11 -13 3 C-9.11 0.57 -4.55 -0.43 0 0 Z " fill="#A6E2F5" transform="translate(137,184)"/>
<path d="M0 0 C0 0.66 0 1.32 0 2 C-5.62 5 -5.62 5 -9 5 C-9.33 5.99 -9.66 6.98 -10 8 C-12.31 8.33 -14.62 8.66 -17 9 C-13.95 6.59 -10.79 4.67 -7.38 2.81 C-6.41 2.28 -5.45 1.75 -4.46 1.21 C-2 0 -2 0 0 0 Z " fill="#9ADAF5" transform="translate(322,63)"/>
<path d="M0 0 C7.8 1.19 14.92 2.4 22 6 C20.25 5.89 18.5 5.76 16.75 5.62 C15.78 5.56 14.8 5.49 13.8 5.41 C11.06 5.01 9.41 4.28 7 3 C4.68 2.61 2.34 2.27 0 2 C0 1.34 0 0.68 0 0 Z " fill="#7CBDDA" transform="translate(384,361)"/>
<path d="M0 0 C4.83 4.05 6.38 7.97 8 14 C7.34 14.66 6.68 15.32 6 16 C5.9 15.07 5.79 14.14 5.69 13.19 C5.31 10.05 5.31 10.05 3.56 8.56 C1.15 6.15 0.8 3.25 0 0 Z " fill="#3B657C" transform="translate(409,346)"/>
<path d="M0 0 C-1 3 -1 3 -3.12 4.62 C-6.44 6.21 -9.36 6.64 -13 7 C-4.79 0 -4.79 0 0 0 Z " fill="#A1D7EB" transform="translate(33,212)"/>
<path d="M0 0 C2.75 3.4 6 7.48 6 12 C5.01 12.33 4.02 12.66 3 13 C-0.43 4.57 -0.43 4.57 0 0 Z " fill="#41657C" transform="translate(369,193)"/>
<path d="M0 0 C0.66 0.33 1.32 0.66 2 1 C1.36 1.27 0.72 1.54 0.06 1.81 C-2.33 2.89 -2.33 2.89 -3 6 C-3.89 6.14 -4.77 6.29 -5.69 6.44 C-8.47 6.91 -11.23 7.43 -14 8 C-11.1 5.71 -8.17 3.92 -4.88 2.25 C-4.01 1.8 -3.14 1.35 -2.24 0.89 C-1.5 0.6 -0.76 0.3 0 0 Z " fill="#A0E1F5" transform="translate(345,50)"/>
<path d="M0 0 C0.99 0 1.98 0 3 0 C2.84 0.56 2.68 1.12 2.52 1.7 C1.98 4.1 1.79 6.31 1.68 8.77 C1.64 9.66 1.6 10.54 1.56 11.46 C1.52 12.38 1.48 13.3 1.44 14.25 C1.39 15.19 1.35 16.12 1.31 17.09 C1.2 19.39 1.1 21.7 1 24 C0.67 24 0.34 24 0 24 C0 16.08 0 8.16 0 0 Z " fill="#F47361" transform="translate(44,331)"/>
<path d="M0 0 C0 0.66 0 1.32 0 2 C-1.89 3.01 -3.79 4.01 -5.69 5 C-7.27 5.84 -7.27 5.84 -8.89 6.69 C-11.92 7.97 -13.76 8.29 -17 8 C-13.97 5.55 -10.92 3.91 -7.38 2.31 C-6.41 1.88 -5.45 1.44 -4.46 0.99 C-2 0 -2 0 0 0 Z " fill="#A3DDF2" transform="translate(131,162)"/>
<path d="M0 0 C-0.33 0.99 -0.66 1.98 -1 3 C-2.65 3 -4.3 3 -6 3 C-5.67 4.32 -5.34 5.64 -5 7 C-7.64 6.67 -10.28 6.34 -13 6 C-9.4 2.98 -4.81 0 0 0 Z " fill="#96DDF9" transform="translate(288,81)"/>
<path d="M0 0 C0 0.99 0 1.98 0 3 C-0.66 3 -1.32 3 -2 3 C-2.33 4.65 -2.66 6.3 -3 8 C-4.32 8.33 -5.64 8.66 -7 9 C-7 9.99 -7 10.98 -7 12 C-7.66 12 -8.32 12 -9 12 C-7.19 6.71 -4.67 3.11 0 0 Z " fill="#456D87" transform="translate(273,342)"/>
<path d="M0 0 C5 6.36 5 6.36 5 11 C3.35 11 1.7 11 0 11 C0.19 10.48 0.37 9.97 0.56 9.44 C1.15 6.14 0.57 3.28 0 0 Z " fill="#3A6078" transform="translate(377,209)"/>
<path d="M0 0 C0.66 0.33 1.32 0.66 2 1 C2 1.66 2 2.32 2 3 C0.97 3.43 -0.06 3.87 -1.12 4.31 C-4.48 5.75 -7.75 7.33 -11 9 C-11.66 8.34 -12.32 7.68 -13 7 C-10.88 5.8 -8.75 4.62 -6.62 3.44 C-6.02 3.1 -5.42 2.75 -4.8 2.4 C-3.23 1.54 -1.62 0.76 0 0 Z " fill="#A0DEF4" transform="translate(74,190)"/>
<path d="M0 0 C-5.55 2.84 -9.8 3.38 -16 3 C-13.63 0.63 -12.36 0.45 -9.12 -0.19 C-8.26 -0.37 -7.4 -0.55 -6.51 -0.73 C-4.01 -1 -2.37 -0.78 0 0 Z " fill="#78B9D7" transform="translate(390,186)"/>
<path d="M0 0 C2.15 2.76 3.98 5.57 5.69 8.62 C6.34 9.79 6.34 9.79 7.01 10.98 C8 13 8 13 8 15 C7.34 15 6.68 15 6 15 C6 14.01 6 13.02 6 12 C5.34 12 4.68 12 4 12 C3.32 10.76 2.66 9.5 2 8.25 C1.63 7.55 1.26 6.86 0.88 6.14 C0 4 0 4 0 0 Z " fill="#A7E0F5" transform="translate(472,175)"/>
<path d="M0 0 C2.15 2.77 4.02 5.58 5.75 8.62 C6.2 9.4 6.65 10.18 7.11 10.98 C7.4 11.64 7.7 12.31 8 13 C7.67 13.66 7.34 14.32 7 15 C6.01 14.34 5.02 13.68 4 13 C3.81 10.38 3.81 10.38 4 8 C3.34 8 2.68 8 2 8 C0.24 4.91 0 3.77 0 0 Z " fill="#9DDBF5" transform="translate(464,160)"/>
<path d="M0 0 C0 0.99 0 1.98 0 3 C-3.13 4.86 -5.37 5.2 -9 5 C-9.33 5.66 -9.66 6.32 -10 7 C-10.66 6.34 -11.32 5.68 -12 5 C-10.38 4.16 -8.75 3.33 -7.12 2.5 C-6.22 2.04 -5.32 1.57 -4.38 1.09 C-2 0 -2 0 0 0 Z " fill="#A7E2F7" transform="translate(107,174)"/>
<path d="M0 0 C1.32 0.33 2.64 0.66 4 1 C4 4.77 3.76 5.91 2 9 C1.34 8.67 0.68 8.34 0 8 C0 5.36 0 2.72 0 0 Z " fill="#40667C" transform="translate(322,167)"/>
<path d="M0 0 C0 0.66 0 1.32 0 2 C0.66 2 1.32 2 2 2 C2.33 3.98 2.66 5.96 3 8 C2.4 7.18 1.8 6.35 1.19 5.5 C0.47 4.68 -0.26 3.85 -1 3 C-1.99 3 -2.98 3 -4 3 C-4.66 3 -5.32 3 -6 3 C-6 2.01 -6 1.02 -6 0 C-3 -1 -3 -1 0 0 Z " fill="#ABE6F7" transform="translate(182,161)"/>
<path d="M0 0 C6.16 0.38 9.17 2.16 14 6 C11 7 11 7 8.31 5.69 C7.55 5.13 6.79 4.57 6 4 C6 3.34 6 2.68 6 2 C4.02 2 2.04 2 0 2 C0 1.34 0 0.68 0 0 Z " fill="#A0DCF4" transform="translate(388,33)"/>
<path d="M0 0 C1.32 0.33 2.64 0.66 4 1 C2.02 4.63 0.04 8.26 -2 12 C-2.33 12 -2.66 12 -3 12 C-3 10.35 -3 8.7 -3 7 C-2.34 7 -1.68 7 -1 7 C-1.02 6.03 -1.04 5.06 -1.06 4.06 C-1 1 -1 1 0 0 Z " fill="#76B6D3" transform="translate(291,209)"/>
<path d="M0 0 C0.66 0.33 1.32 0.66 2 1 C-0.7 4.33 -4.02 5.6 -8 7 C-10.22 6.58 -10.22 6.58 -12 6 C-10.05 4.97 -8.09 3.95 -6.12 2.94 C-5.03 2.37 -3.94 1.8 -2.82 1.21 C-1.42 0.61 -1.42 0.61 0 0 Z " fill="#C2DBE8" transform="translate(86,209)"/>
<path d="M0 0 C1.5 1.25 1.5 1.25 3 3 C3 4.32 3 5.64 3 7 C-0.63 7.33 -4.26 7.66 -8 8 C-7.67 7.34 -7.34 6.68 -7 6 C-4.36 6 -1.72 6 1 6 C0.67 4.02 0.34 2.04 0 0 Z " fill="#46768E" transform="translate(428,170)"/>
<path d="M0 0 C2 2 2 2 2.12 4.62 C2.08 5.41 2.04 6.19 2 7 C0.66 6.19 -0.67 5.38 -2 4.56 C-2.74 4.11 -3.49 3.66 -4.25 3.19 C-4.83 2.8 -5.4 2.41 -6 2 C-6 1.67 -6 1.34 -6 1 C-3.12 0.38 -3.12 0.38 0 0 Z " fill="#7CC4E4" transform="translate(406,337)"/>
<path d="M0 0 C0.33 0.99 0.66 1.98 1 3 C0.01 3.33 -0.98 3.66 -2 4 C-3.09 5.93 -3.09 5.93 -4 8 C-4.66 8.66 -5.32 9.32 -6 10 C-5.73 5.97 -5.47 4.43 -2.44 1.62 C-1.63 1.09 -0.83 0.55 0 0 Z " fill="#416A86" transform="translate(331,261)"/>
<path d="M0 0 C0.33 0.99 0.66 1.98 1 3 C0.01 4.49 0.01 4.49 -1 6 C-1.17 8.63 -1.17 8.63 -1 11 C-2.32 11 -3.64 11 -5 11 C-4.47 6.49 -2.63 3.65 0 0 Z " fill="#3B627C" transform="translate(295,209)"/>
<path d="M0 0 C4.43 5.7 4.43 5.7 6 9 C5.34 10.32 4.68 11.64 4 13 C3.01 9.7 2.02 6.4 1 3 C0.01 3.33 -0.98 3.66 -2 4 C-2.33 3.34 -2.66 2.68 -3 2 C-2.01 2 -1.02 2 0 2 C0 1.34 0 0.68 0 0 Z " fill="#A9E1F7" transform="translate(486,202)"/>
<path d="M0 0 C0.66 0.33 1.32 0.66 2 1 C0.93 2.04 -0.16 3.05 -1.25 4.06 C-1.85 4.63 -2.46 5.2 -3.08 5.79 C-5 7 -5 7 -7.23 6.68 C-7.82 6.46 -8.4 6.23 -9 6 C-3.3 1.25 -3.3 1.25 0 0 Z " fill="#94DBF7" transform="translate(59,198)"/>
<path d="M0 0 C0 0.99 0 1.98 0 3 C-1.32 3 -2.64 3 -4 3 C-4 3.66 -4 4.32 -4 5 C-6.97 5.66 -9.94 6.32 -13 7 C-4.25 0 -4.25 0 0 0 Z " fill="#A4DEF7" transform="translate(180,136)"/>
<path d="M0 0 C0.66 0.33 1.32 0.66 2 1 C-1.17 4.54 -3.17 6.59 -8 7 C-5.42 4.35 -3.08 2.06 0 0 Z " fill="#4A728C" transform="translate(312,394)"/>
<path d="M0 0 C0.33 0 0.66 0 1 0 C1 2.64 1 5.28 1 8 C-4.94 6.51 -4.94 6.51 -11 5 C-11 4.67 -11 4.34 -11 4 C-7.37 4.33 -3.74 4.66 0 5 C0 3.35 0 1.7 0 0 Z " fill="#43758F" transform="translate(417,362)"/>
<path d="M0 0 C1.77 0.01 1.77 0.01 3.57 0.03 C4.48 0.04 5.38 0.05 6.31 0.06 C6.31 0.72 6.31 1.38 6.31 2.06 C5.5 2.04 4.7 2.02 3.86 1.99 C2.79 1.97 1.73 1.96 0.62 1.94 C-0.43 1.91 -1.49 1.89 -2.57 1.87 C-5.71 2.06 -7.86 2.73 -10.69 4.06 C-10.36 3.07 -10.03 2.08 -9.69 1.06 C-6.27 -0.08 -3.6 -0.04 0 0 Z " fill="#77B7D5" transform="translate(339.6875,257.9375)"/>
<path d="M0 0 C1.98 0.99 1.98 0.99 4 2 C3.67 2.99 3.34 3.98 3 5 C3.99 5 4.98 5 6 5 C6.33 6.65 6.66 8.3 7 10 C6.01 10 5.02 10 4 10 C4 8.68 4 7.36 4 6 C3.34 6 2.68 6 2 6 C1.34 4.02 0.68 2.04 0 0 Z " fill="#7DC1E0" transform="translate(344,144)"/>
<path d="M0 0 C2.75 3.4 6 7.48 6 12 C5.34 12 4.68 12 4 12 C-0.57 4.71 -0.57 4.71 0 0 Z " fill="#A7E1F8" transform="translate(434,101)"/>
<path d="M0 0 C0.66 0 1.32 0 2 0 C2 0.66 2 1.32 2 2 C2.99 2.33 3.98 2.66 5 3 C5 4.32 5 5.64 5 7 C5.66 7.33 6.32 7.66 7 8 C5.02 8.99 5.02 8.99 3 10 C2.88 9.28 2.75 8.56 2.62 7.81 C2.01 5.04 1.12 2.6 0 0 Z " fill="#DACCCA" transform="translate(183,211)"/>
<path d="M0 0 C1.32 0 2.64 0 4 0 C4.93 2.61 5.15 3.64 4.06 6.25 C3.54 7.12 3.54 7.12 3 8 C0 3.38 0 3.38 0 0 Z " fill="#7EC7E2" transform="translate(368,189)"/>
<path d="M0 0 C-1.62 0.84 -3.25 1.67 -4.88 2.5 C-6.23 3.2 -6.23 3.2 -7.62 3.91 C-10 5 -10 5 -12 5 C-12 4.34 -12 3.68 -12 3 C-11.01 3 -10.02 3 -9 3 C-9 2.34 -9 1.68 -9 1 C-3.38 -1.12 -3.38 -1.12 0 0 Z " fill="#ADE5F4" transform="translate(162,172)"/>
<path d="M0 0 C0.33 0.99 0.66 1.98 1 3 C-0.69 4.56 -0.69 4.56 -3 6 C-5.75 5.69 -5.75 5.69 -8 5 C-5.44 2.99 -2.95 1.37 0 0 Z " fill="#A5E2F8" transform="translate(194,128)"/>
<path d="M0 0 C0.66 0.33 1.32 0.66 2 1 C-2.75 5.88 -2.75 5.88 -5 7 C-5.66 6.34 -6.32 5.68 -7 5 C-4.69 3.35 -2.38 1.7 0 0 Z " fill="#46708A" transform="translate(321,388)"/>
<path d="M0 0 C2.64 3.13 3.84 6.09 5 10 C2 9 2 9 0.81 7.25 C-0.11 4.7 -0.15 2.69 0 0 Z " fill="#83C9E8" transform="translate(315,156)"/>
<path d="M0 0 C0.66 0.33 1.32 0.66 2 1 C-0.36 3.53 -1.66 4.89 -5 6 C-5.66 5.34 -6.32 4.68 -7 4 C-1.73 0.78 -1.73 0.78 0 0 Z " fill="#A6DFF5" transform="translate(165,143)"/>
<path d="M0 0 C0.99 0.33 1.98 0.66 3 1 C3.73 3.07 3.73 3.07 4.19 5.56 C4.35 6.39 4.5 7.22 4.67 8.07 C4.78 8.7 4.89 9.34 5 10 C3.5 8.62 3.5 8.62 2 7 C2 6.34 2 5.68 2 5 C1.34 4.67 0.68 4.34 0 4 C0 2.68 0 1.36 0 0 Z " fill="#B5E9F5" transform="translate(0,448)"/>
<path d="M0 0 C3.48 3.02 4.79 5.57 6 10 C5.01 10.33 4.02 10.66 3 11 C0.86 3.57 0.86 3.57 0 0 Z " fill="#3F6A82" transform="translate(328,115)"/>
<path d="M0 0 C0.66 0.33 1.32 0.66 2 1 C2 1.99 2 2.98 2 4 C-0.5 6.19 -0.5 6.19 -3 8 C-3.75 6.25 -3.75 6.25 -4 4 C-2.06 1.75 -2.06 1.75 0 0 Z " fill="#3D677C" transform="translate(310,112)"/>
<path d="M0 0 C4.95 1.98 4.95 1.98 10 4 C9.34 4.66 8.68 5.32 8 6 C5.52 5.01 5.52 5.01 3 4 C3 3.34 3 2.68 3 2 C2.01 2 1.02 2 0 2 C0 1.34 0 0.68 0 0 Z " fill="#406D84" transform="translate(362,321)"/>
<path d="M0 0 C0 0.66 0 1.32 0 2 C-3.42 4.54 -5.76 5.36 -10 5 C-3.64 0 -3.64 0 0 0 Z " fill="#C97973" transform="translate(156,207)"/>
<path d="M0 0 C3 1 3 1 4.19 2.75 C5.11 5.3 5.15 7.31 5 10 C2.36 6.87 1.16 3.91 0 0 Z " fill="#406B84" transform="translate(316,156)"/>
<path d="M0 0 C0.99 0.33 1.98 0.66 3 1 C1.35 3.64 -0.3 6.28 -2 9 C-2.33 7.68 -2.66 6.36 -3 5 C-2.34 5 -1.68 5 -1 5 C-0.67 3.35 -0.34 1.7 0 0 Z " fill="#84CDEA" transform="translate(267,343)"/>
<path d="M0 0 C-2.31 1.32 -4.62 2.64 -7 4 C-7 3.34 -7 2.68 -7 2 C-7.66 1.67 -8.32 1.34 -9 1 C-3.38 -1.12 -3.38 -1.12 0 0 Z " fill="#80CCE8" transform="translate(279,339)"/>
<path d="M0 0 C3.11 3.11 3.81 4.89 5 9 C4.01 9 3.02 9 2 9 C1.34 6.03 0.68 3.06 0 0 Z " fill="#C0E7F9" transform="translate(450,132)"/>
<path d="M0 0 C0.33 0 0.66 0 1 0 C1 2.64 1 5.28 1 8 C0.01 7.67 -0.98 7.34 -2 7 C-2 5.35 -2 3.7 -2 2 C-1.34 2 -0.68 2 0 2 C0 1.34 0 0.68 0 0 Z " fill="#7ABAD9" transform="translate(302,122)"/>
<path d="M0 0 C0.66 0 1.32 0 2 0 C2.66 1.98 3.32 3.96 4 6 C3.01 6.33 2.02 6.66 1 7 C0.67 4.69 0.34 2.38 0 0 Z " fill="#A7DFF4" transform="translate(410,56)"/>
<path d="M0 0 C2.06 2.31 2.06 2.31 4 5 C3.67 5.99 3.34 6.98 3 8 C2.01 7.67 1.02 7.34 0 7 C0 4.69 0 2.38 0 0 Z " fill="#CB7E73" transform="translate(183,212)"/>
<path d="M0 0 C2.31 0.33 4.62 0.66 7 1 C3.87 2.86 1.63 3.2 -2 3 C-1.34 2.01 -0.68 1.02 0 0 Z " fill="#B4D9E2" transform="translate(94,204)"/>
<path d="M0 0 C3 3.75 3 3.75 3 6 C3.66 6.33 4.32 6.66 5 7 C4.34 7.66 3.68 8.32 3 9 C0.71 5.56 0 4.28 0 0 Z " fill="#EA9B86" transform="translate(177,198)"/>
<path d="M0 0 C0.66 0 1.32 0 2 0 C4.04 2.91 5 4.4 5 8 C4.34 8 3.68 8 3 8 C0 2.25 0 2.25 0 0 Z " fill="#88CFEB" transform="translate(372,197)"/>
<path d="" fill="#FFFFFF" transform="translate(0,0)"/>
<path d="" fill="#FFFFFF" transform="translate(0,0)"/>
<path d="" fill="#FFFFFF" transform="translate(0,0)"/>
<path d="" fill="#FFFFFF" transform="translate(0,0)"/>
<path d="" fill="#FFFFFF" transform="translate(0,0)"/>
<path d="" fill="#FFFFFF" transform="translate(0,0)"/>
<path d="" fill="#FFFFFF" transform="translate(0,0)"/>
<path d="" fill="#FFFFFF" transform="translate(0,0)"/>
<path d="" fill="#FFFFFF" transform="translate(0,0)"/>
<path d="" fill="#FFFFFF" transform="translate(0,0)"/>
<path d="" fill="#FFFFFF" transform="translate(0,0)"/>
<path d="" fill="#FFFFFF" transform="translate(0,0)"/>
<path d="" fill="#FFFFFF" transform="translate(0,0)"/>
<path d="" fill="#FFFFFF" transform="translate(0,0)"/>
<path d="" fill="#FFFFFF" transform="translate(0,0)"/>
<path d="" fill="#FFFFFF" transform="translate(0,0)"/>
<path d="" fill="#FFFFFF" transform="translate(0,0)"/>
<path d="" fill="#FFFFFF" transform="translate(0,0)"/>
<path d="" fill="#FFFFFF" transform="translate(0,0)"/>
<path d="" fill="#FFFFFF" transform="translate(0,0)"/>
<path d="" fill="#FFFFFF" transform="translate(0,0)"/>
<path d="" fill="#FFFFFF" transform="translate(0,0)"/>
<path d="" fill="#FFFFFF" transform="translate(0,0)"/>
<path d="" fill="#FFFFFF" transform="translate(0,0)"/>
<path d="" fill="#FFFFFF" transform="translate(0,0)"/>
<path d="" fill="#FFFFFF" transform="translate(0,0)"/>
<path d="" fill="#FFFFFF" transform="translate(0,0)"/>
<path d="" fill="#FFFFFF" transform="translate(0,0)"/>
<path d="" fill="#FFFFFF" transform="translate(0,0)"/>
<path d="" fill="#FFFFFF" transform="translate(0,0)"/>
<path d="" fill="#FFFFFF" transform="translate(0,0)"/>
<path d="" fill="#FFFFFF" transform="translate(0,0)"/>
<path d="" fill="#FFFFFF" transform="translate(0,0)"/>
<path d="" fill="#FFFFFF" transform="translate(0,0)"/>
<path d="" fill="#FFFFFF" transform="translate(0,0)"/>
<path d="" fill="#FFFFFF" transform="translate(0,0)"/>
<path d="" fill="#FFFFFF" transform="translate(0,0)"/>
<path d="" fill="#FFFFFF" transform="translate(0,0)"/>
<path d="" fill="#FFFFFF" transform="translate(0,0)"/>
<path d="" fill="#FFFFFF" transform="translate(0,0)"/>
<path d="" fill="#FFFFFF" transform="translate(0,0)"/>
<path d="" fill="#FFFFFF" transform="translate(0,0)"/>
</svg>
